<svg width="32" height="32" viewBox="0 0 32 32" fill="none" xmlns="http://www.w3.org/2000/svg">
  <rect width="32" height="32" rx="8" fill="url(#gradient)"/>
  <path d="M8 12h4l4 8h-4l-1-2h-2l-1 2H8l4-8zm2 4l-1 2h2l-1-2z" fill="white"/>
  <path d="M16 12h4c2 0 4 1 4 3s-1 2-2 2c1 0 2 1 2 3s-2 3-4 3h-4V12zm4 4c1 0 1-1 1-1s0-1-1-1h-2v2h2zm0 4c1 0 2-1 2-2s-1-2-2-2h-2v4h2z" fill="white"/>
  <defs>
    <linearGradient id="gradient" x1="0" y1="0" x2="32" y2="32" gradientUnits="userSpaceOnUse">
      <stop stop-color="#3B82F6"/>
      <stop offset="1" stop-color="#A855F7"/>
    </linearGradient>
  </defs>
</svg>